<svg width="48" height="48" viewBox="0 0 48 48" fill="none" xmlns="http://www.w3.org/2000/svg">
<g id="team">
<path id="app_bg" fill-rule="evenodd" clip-rule="evenodd" d="M33.6 48H14.4C6.48 48 0 41.52 0 33.6V14.4C0 6.48 6.48 0 14.4 0H33.6C41.52 0 48 6.48 48 14.4V33.6C48 41.52 41.52 48 33.6 48Z" fill="#70546E"/>
<path id="Fill 3" opacity="0.2" fill-rule="evenodd" clip-rule="evenodd" d="M37.9437 5.06154C40.3528 5.06154 42.7077 5.29564 45 5.72081C42.3451 2.24226 38.2761 0 33.7277 0H14.4547C6.50463 0 0 6.83308 0 15.1846V33C5.6253 16.7044 20.4896 5.06154 37.9437 5.06154Z" fill="#0B0909"/>
<path id="Fill 5" fill-rule="evenodd" clip-rule="evenodd" d="M17.304 13.0124C15.9021 13.0124 14.7664 14.1497 14.7664 15.5548C14.7664 16.9577 15.9021 18.0982 17.304 18.0982C18.7059 18.0982 19.8427 16.9577 19.8427 15.5548C19.8427 14.1497 18.7059 13.0124 17.304 13.0124V13.0124ZM20.064 25.9374L20.0223 26.7384L20.0191 26.777L20.5559 36.0607H18.1284L17.7253 28.1467H16.6987L16.2003 36.0607H13.9269L14.2808 26.777L14.1076 23.0181L12.0127 26.0134L11 25.1749L13.9622 18.6134H15.6903L17.3414 20.5882L18.9465 18.6134H20.2832L20.9131 17.1495H24.226L23.98 17.5714L24.3072 18.2376L23.594 23.3436L24.7093 24.4799L24.7072 24.5688L24.7521 24.5227L24.7938 24.5688V24.4799L25.9092 23.3436L25.1959 18.2376L25.5242 17.5714L25.2782 17.1495H28.6243L29.0788 18.6134H30.6208L32.2708 20.5882L33.8738 18.6134H35.3464L38.0968 24.7283L37.006 25.6654L35.1699 22.5662L34.9496 26.7384L34.9485 26.777L35.4843 36.0607H33.059L32.6558 28.1467H31.626L31.1288 36.0607H28.8563L29.2114 26.777L29.1793 26.1184L28.2436 26.9044L28.666 38.0001H25.9519L25.3574 28.544H24.1287L23.6474 38.0001H20.7484L21.3889 26.9044L20.064 25.9374ZM32.2345 13.0124C30.8315 13.0124 29.6947 14.1497 29.6947 15.5548C29.6947 16.9577 30.8315 18.0982 32.2345 18.0982C33.6364 18.0982 34.7721 16.9577 34.7721 15.5548C34.7721 14.1497 33.6364 13.0124 32.2345 13.0124V13.0124ZM24.7992 10C23.0507 10 21.6327 11.4179 21.6327 13.1688C21.6327 14.9198 23.0507 16.3409 24.7992 16.3409C26.5486 16.3409 27.9656 14.9198 27.9656 13.1688C27.9656 11.4179 26.5486 10 24.7992 10V10Z" fill="white"/>
</g>
</svg>
