<svg width="48" height="48" viewBox="0 0 48 48" fill="none" xmlns="http://www.w3.org/2000/svg">
<g id="demands">
<path id="app_bg" fill-rule="evenodd" clip-rule="evenodd" d="M33.6 48H14.4C6.48 48 0 41.52 0 33.6V14.4C0 6.48 6.48 0 14.4 0H33.6C41.52 0 48 6.48 48 14.4V33.6C48 41.52 41.52 48 33.6 48Z" fill="#70546E"/>
<path id="Union" fill-rule="evenodd" clip-rule="evenodd" d="M31.1587 14.5933C31.1587 15.5827 30.7853 16.4787 30.188 17.132L24.5507 23.5627L18.904 17.1227C18.3067 16.4693 17.9333 15.5733 17.9333 14.584C17.9333 13.5947 18.3067 12.6987 18.904 12.0453C19.2027 11.7187 19.5667 11.448 19.968 11.2707C20.3693 11.0933 20.7987 11 21.2373 11C21.2373 11 22.88 11 24.5413 12.792C26.1933 11 27.8453 11 27.8453 11C28.284 11 28.7133 11.0933 29.124 11.28C29.5253 11.4573 29.8893 11.7187 30.188 12.0547C30.7853 12.708 31.1587 13.604 31.1587 14.5933ZM17 24.5427C17.616 24.076 18.4933 24.2067 18.96 24.8227L21.48 28.192C22.208 29.1627 22.6 30.3387 22.6 31.552V36.452C22.6 36.8347 22.2827 37.152 21.9 37.152H16.1413C15.824 37.152 15.544 36.9467 15.4693 36.648C15.376 36.3027 15.2267 35.976 15.012 35.696L10.4573 29.816C10.1587 29.4427 10 28.976 10 28.5V18.9427C10 18.168 10.6253 17.5427 11.4 17.5427C12.1747 17.5427 12.8 18.168 12.8 18.9427V25.4293L16.7293 30.152C16.9907 30.4693 17.4667 30.488 17.7653 30.1987L18.3253 29.6387C18.568 29.396 18.6053 29.004 18.3907 28.724L16.72 26.5027C16.2533 25.8867 16.384 25.0093 17 24.5427ZM35.2 18.9427C35.2 18.168 35.8253 17.5427 36.6 17.5427C37.3747 17.5427 38 18.168 38 18.9427V28.4907C38 28.9667 37.8413 29.4333 37.5427 29.8067L32.988 35.6867C32.764 35.976 32.6147 36.2933 32.5307 36.6387C32.4467 36.9373 32.1667 37.1427 31.8587 37.1427H26.1C25.7173 37.1427 25.4 36.8253 25.4 36.4427V31.5427C25.4 30.3293 25.792 29.1533 26.52 28.1827L29.04 24.8227C29.5067 24.2067 30.384 24.076 31 24.5427C31.616 25.0093 31.7467 25.8867 31.28 26.5027L29.6093 28.724C29.3947 29.004 29.432 29.396 29.6747 29.6387L30.2347 30.1987C30.524 30.488 31.0093 30.4693 31.2707 30.152L35.2 25.4387V18.9427Z" fill="white"/>
<path id="Fill 3" opacity="0.2" fill-rule="evenodd" clip-rule="evenodd" d="M37.9437 5.06154C40.3528 5.06154 42.7077 5.29564 45 5.72081C42.3451 2.24226 38.2761 0 33.7277 0H14.4547C6.50463 0 0 6.83308 0 15.1846V33C5.6253 16.7044 20.4896 5.06154 37.9437 5.06154Z" fill="black"/>
</g>
</svg>
