<svg width="48" height="48" viewBox="0 0 48 48" fill="none" xmlns="http://www.w3.org/2000/svg">
<g id="provide">
<path id="app_bg" fill-rule="evenodd" clip-rule="evenodd" d="M33.6 48H14.4C6.48 48 0 41.52 0 33.6V14.4C0 6.48 6.48 0 14.4 0H33.6C41.52 0 48 6.48 48 14.4V33.6C48 41.52 41.52 48 33.6 48Z" fill="#70546E"/>
<path id="Vector" d="M23.3804 23.1787C23.7207 23.5372 24.2799 23.5372 24.6202 23.1787L29.8761 17.6262C31.4077 16.0159 31.3211 13.3427 29.6014 11.8549C28.1 10.5543 25.8698 10.7901 24.5011 12.2305L23.959 12.7938L23.4582 12.2283C22.092 10.7879 19.8554 10.5522 18.319 11.853C16.6464 13.3417 16.5492 16.0169 18.0905 17.6262L23.3804 23.1787ZM37.6262 27.3503C36.9883 26.4844 35.7719 26.2972 34.9069 26.9386L29.087 31.2254H23.2234C22.798 31.2254 22.4892 30.8729 22.4892 30.4913C22.4892 30.066 22.8417 29.7571 23.2234 29.7571H27.0279C27.7621 29.7571 28.523 29.2286 28.6504 28.4628C28.8084 27.5342 28.0611 26.6459 27.113 26.6459H19.2914C18.0224 26.6459 16.7087 27.0956 15.6876 27.9221L13.4268 29.7571L10.7347 29.7559C10.3093 29.7559 10.0005 30.1096 10.0005 30.5348L10 35.115C10 35.5429 10.3525 35.893 10.7342 35.893H27.5618C28.6329 35.893 29.6972 35.5435 30.5617 34.9069L37.1303 30.0687C38.0784 29.4313 38.2632 28.2158 37.6262 27.3503Z" fill="white"/>
<path id="Fill 3" opacity="0.2" fill-rule="evenodd" clip-rule="evenodd" d="M37.9437 5.06154C40.3528 5.06154 42.7077 5.29564 45 5.72081C42.3451 2.24226 38.2761 0 33.7277 0H14.4547C6.50463 0 0 6.83308 0 15.1846V33C5.6253 16.7044 20.4896 5.06154 37.9437 5.06154Z" fill="black"/>
</g>
</svg>
